<svg width="25" height="24" viewBox="0 0 25 24" fill="none" xmlns="http://www.w3.org/2000/svg">
<g id="icon/twitter">
<path id="vector" d="M20.4525 7.9201C20.4647 8.09642 20.4647 8.27273 20.4647 8.45067C20.4647 13.8726 16.3371 20.1257 8.78966 20.1257V20.1224C6.56013 20.1257 4.3769 19.487 2.5 18.2829C2.82419 18.3219 3.15001 18.3414 3.47664 18.3422C5.32429 18.3438 7.11913 17.7239 8.57272 16.5823C6.81688 16.549 5.27717 15.4042 4.73928 13.7328C5.35436 13.8514 5.98812 13.8271 6.59181 13.6621C4.67753 13.2754 3.30033 11.5935 3.30033 9.64019C3.30033 9.62232 3.30033 9.60525 3.30033 9.58819C3.87071 9.90588 4.50934 10.0822 5.1626 10.1017C3.35964 8.89674 2.80388 6.49821 3.89265 4.62293C5.97593 7.1864 9.04966 8.7448 12.3493 8.90974C12.0186 7.4846 12.4703 5.9912 13.5364 4.98937C15.189 3.43585 17.7882 3.51547 19.3418 5.16731C20.2607 4.98612 21.1415 4.64893 21.9475 4.17117C21.6412 5.121 21.0001 5.92782 20.1437 6.44052C20.957 6.34464 21.7517 6.12689 22.5 5.79457C21.9491 6.62008 21.2552 7.33916 20.4525 7.9201Z" fill="#111827"/>
</g>
</svg>
