<svg width="25" height="24" viewBox="0 0 25 24" fill="none" xmlns="http://www.w3.org/2000/svg">
<g id="icon/youtube">
<path id="vector" fill-rule="evenodd" clip-rule="evenodd" d="M20.292 5.41471C21.1521 5.64577 21.8325 6.32614 22.0635 7.18621C22.4872 8.75232 22.5 12.0001 22.5 12.0001C22.5 12.0001 22.5 15.2607 22.0764 16.8139C21.8453 17.674 21.165 18.3544 20.3049 18.5854C18.7516 19.0091 12.5 19.0091 12.5 19.0091C12.5 19.0091 6.24839 19.0091 4.69512 18.5854C3.83504 18.3544 3.15469 17.674 2.92362 16.8139C2.5 15.2478 2.5 12.0001 2.5 12.0001C2.5 12.0001 2.5 8.75232 2.91078 7.19905C3.14185 6.33897 3.82221 5.65861 4.68229 5.42755C6.23556 5.00392 12.4872 4.99109 12.4872 4.99109C12.4872 4.99109 18.7388 4.99109 20.292 5.41471ZM15.6836 12.0001L10.4974 15.0039V8.99623L15.6836 12.0001Z" fill="#111827"/>
</g>
</svg>
