<svg width="124" height="124" viewBox="0 0 114 114" fill="none" xmlns="http://www.w3.org/2000/svg">
<g id="Logo">
<circle id="Ellipse 57" cx="56.9998" cy="57.0001" r="53.0626" stroke="#2EC4B6" stroke-width="6.91468"/>
<path id="Vector" d="M61.8664 39.255C63.6812 40.6999 64.9527 42.6766 65.2301 44.9884C65.3549 46.6298 65.2053 48.2597 64.421 49.7277C64.3665 49.8355 64.3122 49.9438 64.2557 50.0548C63.2997 51.8349 61.6895 53.1527 59.7707 53.8C57.5398 54.4022 55.251 54.2797 53.1935 53.1642C51.0897 51.8812 49.6911 50.1935 49.1015 47.8008C48.5872 45.4311 49.1796 43.3967 50.4193 41.397C51.2076 40.2503 52.1994 39.3972 53.4362 38.7499C53.5819 38.6714 53.5819 38.6714 53.731 38.5915C56.2971 37.32 59.5337 37.5766 61.8571 39.2527L61.8664 39.255Z" fill="#CBF3F0"/>
<path id="Vector_2" d="M61.8657 82.7178C62.2888 83.0345 62.6575 83.3766 63.0217 83.7581C63.1419 83.8772 63.1419 83.8772 63.2644 83.9985C64.8942 85.6977 65.5069 87.8362 65.4722 90.148C65.4005 92.3443 64.3591 94.2631 62.7905 95.7774C61.0103 97.2569 58.9644 97.8927 56.6641 97.7424C54.3522 97.4477 52.3178 96.4016 50.8036 94.633C49.4511 92.7604 48.9425 90.541 49.2662 88.2639C49.7355 85.9867 51.0463 83.987 52.9767 82.6808C55.774 81.0162 59.0915 80.9585 61.8657 82.7156V82.7178Z" fill="#2EC4B6"/>
<path id="Vector_3" d="M35.9727 76.8225C36.7021 77.2375 37.4176 77.6814 38.1227 78.1287C38.5654 78.4004 39.0185 78.6512 39.4751 78.9032C41.2206 79.8788 42.5845 80.8683 43.1972 82.868C43.5775 84.3476 43.4214 85.8503 43.1018 87.3183C42.881 88.3667 42.792 89.4221 42.7169 90.4855C42.6134 91.7108 42.2314 92.7858 41.2951 93.6181C40.6131 94.1232 39.9427 94.3579 39.0989 94.3116C37.9083 94.0434 36.8101 93.5268 35.712 93.017C35.6279 92.9785 35.5433 92.9399 35.4566 92.9002C34.2428 92.3454 33.0754 91.7593 31.931 91.0739C31.79 90.9947 31.649 90.9167 31.5079 90.8381C28.595 89.2313 28.595 89.2313 28.098 87.8327C27.8252 86.8213 28.0352 85.7636 28.2598 84.7579C28.2859 84.6377 28.3122 84.5175 28.3391 84.3927C28.5668 83.3685 28.8373 82.3698 29.1633 81.3642C29.189 81.2837 29.2147 81.2035 29.2413 81.1203C30.4434 77.3866 30.4434 77.3866 31.8999 76.5659C33.3448 75.8793 34.6163 76.0619 35.9803 76.8179L35.9727 76.8225Z" fill="#2EC4B6"/>
<path id="Vector_4" d="M61.025 17.7549C61.1112 17.7667 61.1972 17.7785 61.2862 17.7907C66.1526 18.4726 70.8225 20.4608 74.6949 23.5356C74.8068 23.6247 74.9191 23.7136 75.0336 23.8061C76.6519 25.1238 78.143 26.5225 79.4376 28.1639C79.5133 28.255 79.5891 28.3465 79.6665 28.4402C80.3508 29.2678 80.938 30.1509 81.516 31.0525C81.5974 31.1785 81.679 31.3034 81.7622 31.4328C82.3205 32.3148 82.8014 33.2245 83.2533 34.1608C83.3296 34.3215 83.4071 34.481 83.4845 34.6405C84.6867 37.1257 85.3687 39.7728 85.7963 42.5008C85.8115 42.5967 85.8267 42.6927 85.8424 42.7921C86.6538 48.2249 86.0932 55.6228 82.7907 60.1309C82.5387 60.3933 82.5387 60.3933 82.2775 60.6222C82.1492 60.7375 82.1492 60.7375 82.0174 60.8556C81.1597 61.4972 79.9945 61.3955 78.9773 61.2868C78.5011 61.1608 78.1208 60.9701 77.7058 60.7088C77.6088 60.6501 77.5116 60.5909 77.4122 60.5308C77.0828 60.3251 76.7591 60.1124 76.4343 59.8997C76.1419 59.7101 75.8483 59.5229 75.5535 59.3356C75.4368 59.2619 75.4368 59.2619 75.3177 59.1865C74.8276 58.8802 74.3294 58.6051 73.815 58.345C72.1158 57.4827 71.1679 56.4955 70.5322 54.6923C70.0617 53.0624 70.3715 51.606 70.7518 49.9992C71.2488 47.8377 71.2072 45.3987 70.6583 43.2602C70.6346 43.1435 70.6109 43.0267 70.5865 42.9065C70.264 41.4038 69.5728 40.0051 68.6908 38.7567C68.6209 38.654 68.5509 38.551 68.4793 38.4447C66.3177 35.3583 63.2429 33.4164 59.5556 32.6304C55.7063 32.0004 51.8802 32.8442 48.6899 35.0694C45.5689 37.3465 43.4998 40.5715 42.8063 44.3976C42.4861 46.4667 42.6144 48.5243 43.1496 50.5471C43.1803 50.6674 43.2109 50.7887 43.2426 50.9124C43.779 52.7272 44.6875 54.438 45.9244 55.8598C45.9929 55.9454 46.0619 56.0308 46.1324 56.1198C47.0572 57.2492 48.3056 58.0618 49.5077 58.8709C49.5985 58.9339 49.6892 58.9969 49.7828 59.0617C52.0484 60.5412 54.9382 60.9227 57.5853 60.9805C59.1227 61.0175 60.6022 61.1319 62.1049 61.4093C62.2077 61.4278 62.3107 61.4462 62.4159 61.4652C65.375 62.0096 68.1146 63.0257 70.7732 64.4128C70.8551 64.4555 70.9373 64.4983 71.0217 64.5422C72.8134 65.4889 74.4664 66.646 75.9806 67.9984C76.0784 68.0835 76.176 68.1684 76.2765 68.2562C77.5134 69.3474 78.6693 70.5102 79.6749 71.8164C79.8113 71.9864 79.8113 71.9864 79.9512 72.1609C83.1531 76.1835 86.2625 82.0903 85.8926 87.4191C85.7389 88.3669 85.1471 88.9796 84.4131 89.5575C82.7717 90.7366 80.9106 91.6729 79.0843 92.5398C79.0098 92.5752 78.9351 92.6107 78.8589 92.6471C78.3572 92.884 77.8544 93.1175 77.3562 93.3487C77.2359 93.405 77.1169 93.4614 76.9932 93.5198C75.9771 93.9937 74.9703 94.4029 73.8375 94.0792C72.7463 93.6331 72.069 92.9118 71.5719 91.8483C71.2829 91.0762 71.209 90.3225 71.1812 89.5018C71.0564 86.0572 69.6439 83.2714 67.5285 80.6359C67.0282 79.9884 66.4218 79.5385 65.8085 79.0035C63.2077 76.865 60.0173 76.0675 56.7114 75.975C51.9259 75.8409 47.3831 74.7728 43.1871 72.5419C43.1018 72.498 43.0161 72.454 42.9282 72.409C41.6105 71.7293 40.4314 70.8832 39.2524 70.0047C39.1474 69.927 39.042 69.8498 38.9345 69.7688C38.3392 69.3192 37.7913 68.8221 37.2469 68.3124C37.0018 68.0881 36.7521 67.8731 36.4967 67.6604C34.2079 65.6607 32.4741 63.0714 31.0523 60.4013L30.9344 60.1839C27.2932 53.4565 26.8309 45.3882 28.9924 38.1059C30.0131 34.8115 31.5817 31.7367 33.7086 29.0203C33.8038 28.8943 33.8993 28.7683 33.9929 28.6423C36.351 25.5098 39.3217 23.0823 42.7201 21.1635C42.8012 21.1168 42.882 21.0701 42.9652 21.0225C48.3865 17.9131 54.9868 16.8265 61.1132 17.6934L61.025 17.7549Z" fill="#CBF3F0"/>
<path id="Intersect" fill-rule="evenodd" clip-rule="evenodd" d="M84.0318 89.7726C82.4865 90.8279 80.7706 91.6875 79.0843 92.488L78.8588 92.5953C78.3572 92.8322 77.8544 93.0657 77.3562 93.2969C77.2359 93.3532 77.1169 93.4096 76.9932 93.468C75.9771 93.9419 74.9703 94.3511 73.8375 94.0274C72.7463 93.5813 72.069 92.86 71.5719 91.7965C71.2829 91.0244 71.209 90.2707 71.1812 89.45C71.0564 86.0054 69.6438 83.2196 67.5285 80.5841C67.1364 80.0767 66.6792 79.6906 66.2046 79.2898C66.0735 79.1792 65.9412 79.0674 65.8085 78.9517C63.2077 76.8132 60.0173 76.0157 56.7114 75.9232C51.9259 75.7891 47.3831 74.721 43.1871 72.4901C43.1247 72.458 43.0621 72.4258 42.9985 72.3932C42.9752 72.3813 42.9518 72.3693 42.9282 72.3572C41.6104 71.6775 40.4314 70.8314 39.2524 69.9529C39.224 69.9319 39.1956 69.9109 39.1671 69.8899C39.0903 69.8332 39.0129 69.7761 38.9345 69.717C38.3392 69.2674 37.7913 68.7703 37.2468 68.2606C37.0018 68.0363 36.7521 67.8213 36.4967 67.6086C34.2079 65.6089 32.4741 63.0196 31.0523 60.3495L30.9344 60.1321C28.7368 56.0718 27.6971 51.523 27.6934 46.9534C31.5427 49.9227 37.1872 52.7552 44.9126 54.4729C45.2202 54.9401 45.5579 55.3867 45.9243 55.808C45.9463 55.8353 45.9682 55.8627 45.9903 55.8901C46.0372 55.9486 46.0844 56.0075 46.1324 56.068C47.0117 57.1419 48.1837 57.9294 49.3302 58.6998C49.3895 58.7396 49.4486 58.7794 49.5077 58.8191L49.51 58.8207C49.5999 58.8832 49.69 58.9457 49.7828 59.0099C52.0484 60.4894 54.9382 60.8709 57.5853 60.9287C59.1227 60.9657 60.6022 61.0801 62.1049 61.3575L62.4159 61.4134C65.375 61.9578 68.1146 62.9739 70.7732 64.361L71.0217 64.4904C72.8134 65.4371 74.4663 66.5942 75.9806 67.9466L76.0015 67.9648C76.0923 68.0438 76.1831 68.1228 76.2765 68.2044C77.5134 69.2956 78.6693 70.4584 79.6749 71.7646L79.9512 72.1091C82.9925 75.9299 85.9503 81.4505 85.9225 86.5612L84.0318 89.7726Z" fill="#2EC4B6" fill-opacity="0.33"/>
<path id="Intersect_2" fill-rule="evenodd" clip-rule="evenodd" d="M53.0024 60.4281C54.5023 60.8108 56.0825 60.9478 57.5845 60.9806C59.1219 61.0176 60.6015 61.132 62.1042 61.4095L62.4151 61.4653C65.3743 62.0097 68.1138 63.0258 70.7724 64.4129L71.0209 64.5424C72.8126 65.4891 74.4656 66.6461 75.9798 67.9986C76.0776 68.0836 76.1752 68.1685 76.2758 68.2563C77.5126 69.3475 78.6685 70.5104 79.6742 71.8166L79.9504 72.161C83.1523 76.1836 86.2618 82.0904 85.8919 87.4192C85.7381 88.3671 85.1463 88.9797 84.4123 89.5577C82.7709 90.7367 80.9099 91.673 79.0835 92.5399L78.8581 92.6472C78.3564 92.8842 77.8536 93.1177 77.3554 93.3488C77.2657 93.3908 77.1766 93.4329 77.0858 93.4758C77.0549 93.4904 77.0238 93.5051 76.9924 93.5199C75.9764 93.9938 74.9696 94.403 73.8368 94.0794C72.7456 93.6332 72.0682 92.9119 71.5712 91.8485C71.2822 91.0763 71.2082 90.3226 71.1805 89.5019C71.0556 86.0573 69.6431 83.2715 67.5278 80.636C67.1356 80.1286 66.6784 79.7425 66.2038 79.3417C66.0728 79.2311 65.9404 79.1194 65.8077 79.0036C63.2069 76.8652 60.0166 76.0676 56.7106 75.9751C51.9251 75.841 47.3824 74.773 43.1864 72.542C43.124 72.5099 43.0613 72.4778 42.9978 72.4452C42.9745 72.4332 42.951 72.4212 42.9274 72.4091C41.6097 71.7294 40.4307 70.8833 39.2516 70.0048C39.2232 69.9838 39.1948 69.9628 39.1664 69.9418C39.0895 69.8851 39.0122 69.828 38.9337 69.769C38.3384 69.3193 37.7905 68.8223 37.2461 68.3125C37.001 68.0883 36.7514 67.8733 36.4959 67.6606C34.2072 65.6608 32.4733 63.0716 31.0515 60.4014L30.9336 60.1841C28.9547 56.5278 27.9147 52.4754 27.7246 48.3684C32.4699 53.2649 40.6439 58.6495 53.0024 60.4281Z" fill="#2EC4B6"/>
</g>
</svg>
