<svg width="25" height="24" viewBox="0 0 25 24" fill="none" xmlns="http://www.w3.org/2000/svg">
<g id="icon/instagram">
<path id="vector" fill-rule="evenodd" clip-rule="evenodd" d="M12.5 3C10.0556 3 9.7496 3.0102 8.7896 3.054C7.8314 3.0978 7.1768 3.2502 6.6044 3.4728C6.0044 3.6984 5.4602 4.0524 5.0102 4.5108C4.55253 4.96028 4.19831 5.5041 3.9722 6.1044C3.7508 6.6768 3.5978 7.332 3.554 8.2902C3.5108 9.2496 3.5 9.555 3.5 12C3.5 14.445 3.5102 14.7504 3.554 15.7104C3.5978 16.6686 3.7502 17.3232 3.9728 17.8956C4.1984 18.4956 4.5524 19.0398 5.0108 19.4898C5.46029 19.9475 6.00411 20.3017 6.6044 20.5278C7.1768 20.7498 7.8314 20.9022 8.7896 20.946C9.7496 20.9898 10.0556 21 12.5 21C14.9444 21 15.2504 20.9898 16.2104 20.946C17.1686 20.9022 17.8232 20.7498 18.3956 20.5272C18.9956 20.3016 19.5398 19.9476 19.9898 19.4892C20.4475 19.0397 20.8017 18.4959 21.0278 17.8956C21.2498 17.3232 21.4022 16.6686 21.446 15.7104C21.4898 14.7504 21.5 14.4444 21.5 12C21.5 9.5556 21.4898 9.2496 21.446 8.2896C21.4022 7.3314 21.2498 6.6768 21.0272 6.1044C20.8012 5.50384 20.447 4.95979 19.9892 4.5102C19.5397 4.05253 18.9959 3.69831 18.3956 3.4722C17.8232 3.2508 17.168 3.0978 16.2098 3.054C15.2504 3.0108 14.945 3 12.5 3ZM12.5 4.6218C14.903 4.6218 15.188 4.6308 16.1372 4.674C17.0144 4.7142 17.4908 4.86 17.8082 4.9842C18.2282 5.1468 18.5282 5.3424 18.8432 5.6568C19.1582 5.9718 19.3532 6.2718 19.5158 6.6918C19.6394 7.0092 19.7858 7.4856 19.826 8.3628C19.8692 9.312 19.8782 9.597 19.8782 12C19.8782 14.403 19.8692 14.688 19.826 15.6372C19.7858 16.5144 19.64 16.9908 19.5158 17.3082C19.3718 17.6991 19.1419 18.0528 18.8432 18.3432C18.5528 18.642 18.1992 18.8718 17.8082 19.0158C17.4908 19.1394 17.0144 19.2858 16.1372 19.326C15.188 19.3692 14.9036 19.3782 12.5 19.3782C10.0964 19.3782 9.812 19.3692 8.8628 19.326C7.9856 19.2858 7.5092 19.14 7.1918 19.0158C6.80087 18.8718 6.4472 18.6419 6.1568 18.3432C5.85811 18.0528 5.62828 17.6991 5.4842 17.3082C5.3606 16.9908 5.2142 16.5144 5.174 15.6372C5.1308 14.688 5.1218 14.403 5.1218 12C5.1218 9.597 5.1308 9.312 5.174 8.3628C5.2142 7.4856 5.36 7.0092 5.4842 6.6918C5.6468 6.2718 5.8424 5.9718 6.1568 5.6568C6.44716 5.35803 6.80085 5.12819 7.1918 4.9842C7.5092 4.8606 7.9856 4.7142 8.8628 4.674C9.812 4.6308 10.097 4.6218 12.5 4.6218Z" fill="#111827"/>
<path id="vector_2" fill-rule="evenodd" clip-rule="evenodd" d="M12.5 15.003C12.1057 15.003 11.7152 14.9254 11.3508 14.7744C10.9865 14.6235 10.6554 14.4023 10.3766 14.1235C10.0977 13.8446 9.87653 13.5136 9.72561 13.1492C9.5747 12.7849 9.49702 12.3944 9.49702 12C9.49702 11.6057 9.5747 11.2152 9.72561 10.8508C9.87653 10.4865 10.0977 10.1554 10.3766 9.87659C10.6554 9.59774 10.9865 9.37654 11.3508 9.22562C11.7152 9.07471 12.1057 8.99703 12.5 8.99703C13.2965 8.99703 14.0603 9.31342 14.6235 9.87659C15.1866 10.4398 15.503 11.2036 15.503 12C15.503 12.7965 15.1866 13.5603 14.6235 14.1235C14.0603 14.6866 13.2965 15.003 12.5 15.003ZM12.5 7.37403C11.2731 7.37403 10.0965 7.86141 9.22895 8.72896C8.3614 9.5965 7.87402 10.7731 7.87402 12C7.87402 13.2269 8.3614 14.4036 9.22895 15.2711C10.0965 16.1387 11.2731 16.626 12.5 16.626C13.7269 16.626 14.9036 16.1387 15.7711 15.2711C16.6386 14.4036 17.126 13.2269 17.126 12C17.126 10.7731 16.6386 9.5965 15.7711 8.72896C14.9036 7.86141 13.7269 7.37403 12.5 7.37403ZM18.4718 7.29003C18.4718 7.58005 18.3566 7.85818 18.1515 8.06325C17.9465 8.26833 17.6683 8.38353 17.3783 8.38353C17.0883 8.38353 16.8102 8.26833 16.6051 8.06325C16.4 7.85818 16.2848 7.58005 16.2848 7.29003C16.2848 7.00002 16.4 6.72188 16.6051 6.51681C16.8102 6.31174 17.0883 6.19653 17.3783 6.19653C17.6683 6.19653 17.9465 6.31174 18.1515 6.51681C18.3566 6.72188 18.4718 7.00002 18.4718 7.29003Z" fill="#111827"/>
</g>
</svg>
